<svg width="180" height="24" viewBox="0 0 180 24" fill="none" xmlns="http://www.w3.org/2000/svg">
<path d="M18.2972 2.35891L12.6051 11.2395C12.3229 11.6829 11.8322 11.9169 11.3415 11.8923C11.1084 11.8799 10.8754 11.8061 10.6545 11.6706C10.0044 11.2518 9.80805 10.365 10.2374 9.71216L15.8682 0.930136C14.6783 0.412822 13.3779 0.0925544 12.0162 0.0186524C5.74751 -0.338541 0.374336 4.47742 0.0185775 10.7714C-0.337181 17.0654 4.45943 22.4602 10.7281 22.8174C16.9968 23.1746 22.37 18.3587 22.7258 12.0647C22.9343 8.14791 21.1678 4.57597 18.2972 2.35891Z" fill="#EC1C24"/>
<path d="M29.7054 9.15794C28.4173 10.4143 27.7671 11.9662 27.7671 13.8014C27.7671 15.6367 28.405 17.1763 29.6808 18.408C30.9566 19.6397 32.5392 20.2556 34.4284 20.2556C35.5815 20.2556 36.7224 19.96 37.8756 19.3564V15.6121C37.2008 16.4373 36.612 16.9916 36.109 17.2749C35.5938 17.5705 34.9927 17.7183 34.3179 17.7183C33.2507 17.7183 32.3797 17.3488 31.6927 16.6097C31.018 15.8707 30.6745 14.9223 30.6745 13.7645C30.6745 12.6313 31.0303 11.6952 31.7295 10.9562C32.4288 10.2049 33.312 9.83536 34.3793 9.83536C35.054 9.83536 35.6428 9.9832 36.1458 10.2911C36.661 10.5867 37.2376 11.1287 37.8756 11.9169V8.14794C36.8083 7.56904 35.6674 7.27344 34.4529 7.27344C32.5882 7.27344 30.9935 7.9016 29.7054 9.15794Z" fill="#EC1C24"/>
<path d="M47.8487 7.27367C46.6342 7.27367 45.5178 7.72938 44.5241 8.64083V1.17676H41.7026V19.9109H44.5241V13.9741C44.5241 12.4591 44.7204 11.3875 45.113 10.7717C45.5178 10.1558 46.2048 9.84791 47.1985 9.84791C47.9713 9.84791 48.5233 10.0696 48.8791 10.513C49.2226 10.9564 49.4066 11.6708 49.4066 12.6562V19.9232H52.2404V12.3852C52.2404 10.6731 51.8846 9.4168 51.1854 8.64083C50.3389 7.71706 49.2349 7.27367 47.8487 7.27367Z" fill="#EC1C24"/>
<path d="M74.6898 7.58136C74.2849 7.77844 73.831 8.16027 73.3035 8.70222V7.60598H70.4819V19.8984H73.3035V13.5305C73.3035 11.1902 74.0764 10.0201 75.6098 10.0201C76.1251 10.0201 76.6403 10.2172 77.18 10.599L78.4804 8.00014C77.6707 7.50746 76.8856 7.27344 76.1373 7.27344C75.5853 7.27344 75.0946 7.37197 74.6898 7.58136Z" fill="#EC1C24"/>
<path d="M85.3874 7.58136C84.9826 7.77844 84.5287 8.16027 84.0012 8.70222V7.60598H81.1797V19.8984H84.0012V13.5305C84.0012 11.1902 84.7741 10.0201 86.3075 10.0201C86.8227 10.0201 87.338 10.2172 87.8778 10.599L89.1781 8.00014C88.3685 7.50746 87.5833 7.27344 86.835 7.27344C86.283 7.27344 85.7923 7.37197 85.3874 7.58136Z" fill="#EC1C24"/>
<path d="M101.065 7.60645L97.5815 14.6764L93.8276 7.60645H90.5522L96.0603 17.6202L92.6499 24.0004H95.8395L104.267 7.60645H101.065Z" fill="#EC1C24"/>
<path d="M64.4222 16.0314C64.0297 16.5733 63.6739 16.9675 63.3427 17.2015C62.8765 17.5341 62.2999 17.7065 61.6006 17.7065C60.6928 17.7065 59.9568 17.4109 59.3802 16.8197C58.8036 16.2285 58.4724 15.4156 58.3988 14.4056H67.1701L67.1824 13.7405C67.1824 11.7082 66.6672 10.1316 65.6244 8.98613C64.5817 7.82833 63.1587 7.26172 61.3553 7.26172C59.5766 7.26172 58.1413 7.85294 57.0617 9.03537C55.9944 10.2424 55.4546 11.8067 55.4546 13.7528C55.4546 15.7112 56.0067 17.2877 57.1108 18.4702C58.2148 19.6526 59.6869 20.2315 61.5148 20.2315C62.1527 20.2315 62.7415 20.1576 63.2813 20.0344C63.8211 19.8989 64.3363 19.6896 64.8025 19.394C65.2687 19.0983 65.7103 18.7288 66.1274 18.2854C66.3972 17.9898 66.6549 17.6326 66.9125 17.2508L64.4222 16.0314ZM58.9876 11.1539C59.1594 10.8829 59.3802 10.6366 59.6256 10.4395C59.8709 10.2424 60.1531 10.0947 60.4475 9.9838C60.7542 9.87295 61.0732 9.82367 61.4167 9.82367C62.9256 9.82367 63.8701 10.575 64.2749 12.09H58.5951C58.681 11.7451 58.8036 11.4372 58.9876 11.1539Z" fill="#EC1C24"/>
<path d="M125.018 12.5839C125.018 13.9648 124.796 15.1664 124.351 16.1886C123.906 17.2041 123.289 18.0198 122.5 18.6358L124.948 20.5652L123.016 22.2812L119.88 19.7528C119.523 19.8137 119.152 19.8442 118.768 19.8442C117.547 19.8442 116.458 19.5497 115.501 18.9608C114.543 18.3718 113.802 17.5324 113.276 16.4425C112.75 15.3458 112.483 14.0867 112.477 12.6651V11.934C112.477 10.4785 112.736 9.19908 113.255 8.09564C113.781 6.98543 114.52 6.13585 115.47 5.5469C116.428 4.95118 117.52 4.65332 118.747 4.65332C119.975 4.65332 121.064 4.95118 122.014 5.5469C122.972 6.13585 123.71 6.98543 124.229 8.09564C124.755 9.19908 125.018 10.4751 125.018 11.9238V12.5839ZM121.944 11.9137C121.944 10.3634 121.667 9.18554 121.114 8.37996C120.561 7.57438 119.772 7.1716 118.747 7.1716C117.729 7.1716 116.944 7.571 116.391 8.36981C115.838 9.16185 115.558 10.3262 115.551 11.8629V12.5839C115.551 14.0935 115.828 15.2646 116.381 16.0973C116.934 16.9299 117.729 17.3462 118.768 17.3462C119.786 17.3462 120.568 16.9468 121.114 16.148C121.66 15.3425 121.937 14.1713 121.944 12.6346V11.9137Z" fill="#EC1C24"/>
<path d="M138.39 4.85641V14.5944C138.39 16.2123 137.884 17.4918 136.872 18.4328C135.868 19.3737 134.492 19.8442 132.746 19.8442C131.026 19.8442 129.661 19.3873 128.649 18.4734C127.638 17.5595 127.122 16.3037 127.102 14.7061V4.85641H130.136V14.6147C130.136 15.5828 130.366 16.2902 130.824 16.737C131.289 17.177 131.93 17.397 132.746 17.397C134.452 17.397 135.318 16.4967 135.345 14.696V4.85641H138.39Z" fill="#EC1C24"/>
<path d="M148.969 16.5948H143.649L142.638 19.6411H139.411L144.893 4.85641H147.705L153.217 19.6411H149.991L148.969 16.5948ZM144.468 14.1273H148.15L146.299 8.5932L144.468 14.1273Z" fill="#EC1C24"/>
<path d="M166.568 19.6411H163.534L157.627 9.91327V19.6411H154.593V4.85641H157.627L163.544 14.6046V4.85641H166.568V19.6411Z" fill="#EC1C24"/>
<path d="M180 7.32391H175.489V19.6411H172.455V7.32391H168.005V4.85641H180V7.32391Z" fill="#EC1C24"/>
</svg>
